PathFileType	4	(X/Y/Z)	T1_P1_NoVision_Movement_2_0-680.trc
DataRate	CameraRate	NumFrames	NumMarkers	Units	OrigDataRate	OrigDataStartFrame	OrigNumFrames
60	60	4	27	m	60	85	680
Frame#	Time	RHip			RKnee			RAnkle			RBigToe			RSmallToe			RHeel			LHip			LKnee			LAnkle			LBigToe			LSmallToe			LHeel			Neck			Head			Nose			RShoulder			RElbow			RWrist			RThumb			RIndex			RPinky			LShoulder			LElbow			LWrist			LThumb			LIndex			LPinky		
		X1	Y1	Z1	X2	Y2	Z2	X3	Y3	Z3	X4	Y4	Z4	X5	Y5	Z5	X6	Y6	Z6	X7	Y7	Z7	X8	Y8	Z8	X9	Y9	Z9	X10	Y10	Z10	X11	Y11	Z11	X12	Y12	Z12	X13	Y13	Z13	X14	Y14	Z14	X15	Y15	Z15	X16	Y16	Z16	X17	Y17	Z17	X18	Y18	Z18	X19	Y19	Z19	X20	Y20	Z20	X21	Y21	Z21	X22	Y22	Z22	X23	Y23	Z23	X24	Y24	Z24	X25	Y25	Z25	X26	Y26	Z26	X27	Y27	Z27
86	1.4333333333333333	-82.50421401502916	3831.409290057168	-574.0977795657244	263.37447753195073	3995.681902225941	-536.7047608516353	624.6009424083127	4148.878064977022	-523.7842898328272	696.0962904072121	4091.0786105583056	-476.36436854730056	706.2073580152128	4099.38358884118	-540.9473256281404	655.8481483333097	4194.219469586828	-531.8740458837382	-108.75048369687624	3901.477763273681	-356.18365998962867	223.02530715157783	4009.7987162000545	-360.0922966363491	577.5498575321889	4194.480271839121	-382.8161423320168	680.2660723053644	4188.210656296964	-351.13211457941566	643.9247463467519	4250.893278632269	-334.8059068013052	610.1200452416425	4257.273743895487	-424.75906612418936	-673.9040327778222	3715.753413789428	-496.7372064904559	-907.2413838952141	3542.47822104147	-431.91158843797405	-747.8099755175912	3583.5160298870887	-424.36473698428557	-572.0663086131522	3656.1503348814463	-610.7190983675858	-308.5067943620624	3568.1647584470616	-639.6773070110937	-460.1322845567125	3431.5420097040583	-455.64246776523464	-560.8161310606965	3436.870081308812	-408.6718962763769	-559.097713254498	3413.705081728182	-374.16112275624516	-535.670831728582	3399.0532054505866	-375.7077380314858	-629.9366135087525	3826.3738656499604	-381.9139983677062	-406.02157315381635	4003.1081845921117	-336.8738344683917	-141.45035739608298	3971.872226094872	-232.412146948034	4.010751565257124	4005.660420439716	-241.66072030115964	19.418699650431744	3991.6690202435625	-222.99929427558763	5.956003499384547	4010.469754666236	-217.9443579521701
87	1.45	-82.47541530814466	3831.1211995661984	-573.9869097519057	263.3206474639983	3995.3812009090802	-536.6964119815112	618.4337777516614	4145.67035364785	-524.4046107606222	696.2538363469405	4091.69456857827	-476.5841094978332	700.1201578054486	4095.5150430987887	-538.8831091226596	655.8123655471786	4194.38814059052	-532.0192672060839	-108.65751125937712	3901.558764272546	-356.1960486542197	223.11951332322573	4009.9586519688173	-360.25564288107057	577.6040890232132	4194.867600589753	-383.01543228102014	674.9839449713924	4189.075709754059	-351.86398514260264	644.8497836716951	4251.67669804636	-341.01684488205564	610.0527963324613	4257.680528325321	-424.97814971220595	-673.9444328903658	3715.916508020319	-496.8761783175454	-907.2097942255427	3542.564669154004	-431.9363695442475	-747.875517690155	3583.6196933360784	-424.4698846464425	-572.0586415467324	3656.1940523182193	-610.7663297636242	-309.01334717673114	3568.903356075452	-634.1120561629575	-462.9528355043559	3454.188547129276	-461.13855666380965	-562.0628238235516	3449.959917994779	-420.800734589133	-558.8726859583621	3415.0927246673496	-378.7163708052609	-537.0401107549453	3413.7174180886095	-388.3898366039893	-632.3511189836838	3845.9450820016023	-395.9423378707151	-406.0064509508496	4003.1669878964753	-336.89138448420675	-141.50790452060477	3971.956043050648	-232.41987103246706	9.107579856140669	4009.4497426845555	-243.16159496300335	19.8325382166006	3991.693261650155	-222.86217155553464	6.101346226248021	4010.22846544472	-217.74714583967508
88	1.4666666666666666	-82.54059984982584	3831.3088832803037	-574.101289675944	263.4520465591678	3996.6809254036175	-537.2580382033523	624.6315179411898	4148.91545320497	-523.9896876826488	696.2585659499593	4091.847238364651	-476.75276993966423	706.4916457756206	4099.838290143885	-541.265525960613	655.8200928821909	4194.132001606336	-532.0085675121932	-108.71122195758784	3901.6290809902007	-356.25240712010924	223.03368754925927	4010.0159290285665	-360.2814490801821	577.5077415335415	4194.363110944711	-382.79435269249194	674.9040086226229	4189.025358121857	-352.01321587489144	644.6889362498544	4251.481230188301	-341.12315748554454	605.2460946097975	4234.93731150942	-410.48663560219154	-673.8708966747519	3715.852965988536	-496.79914246344225	-907.2117089214524	3542.6509361964245	-431.99203143114636	-747.8233624313298	3583.6046634886	-424.4681924093841	-572.0809085343652	3656.1912704899055	-610.7388833385785	-311.6085430347693	3610.5053055410117	-655.4066156278221	-455.4589889004994	3432.5219192258382	-455.6558762333571	-560.3508967571219	3437.344972682302	-410.5493892856769	-558.6736857743347	3415.1245157561466	-379.15109133990023	-535.4226388226332	3399.9465027117867	-381.1812810169807	-632.3091921791349	3845.79433918321	-395.875541475162	-405.9555448346091	4003.2758654274553	-336.90740163955064	-141.12969407881687	3991.232015460173	-245.15588468434026	3.77059860567609	4005.9046996002403	-241.83530658189056	19.210624339621575	3991.9619996404313	-223.16108596194817	5.909150706940457	4010.878673569737	-218.17077556269237
89	1.4833333333333334	-83.10660644829946	3859.4579281960423	-581.3290129190596	262.9882537026093	3996.211605224693	-536.7648763203723	618.62392063286	4145.919636211641	-524.5014153835363	690.547748299691	4092.174500043776	-477.39285566645924	706.0995502322224	4099.644663943083	-541.139926607285	655.9298063237479	4194.395167915305	-532.043058709813	-108.8396081080846	3901.846291070992	-356.28627247162507	211.34243059587678	4007.0294580771556	-355.73276073952167	572.231843250387	4195.266894493064	-383.5344942006557	675.0966832529217	4188.946390938355	-352.1090228848391	651.1718425066282	4254.512833376892	-340.37233596409953	605.5666452806075	4235.676713162555	-410.7263820776408	-673.8869548626993	3715.8155665009117	-496.76860126973145	-907.2344350341044	3542.4292123771293	-431.98175657723624	-747.7785912752408	3583.4115274198734	-424.35284325793833	-572.1492266039355	3656.6126435660335	-610.970570426877	-311.0049212613855	3593.12827326031	-641.1609009115198	-458.6853658396038	3415.915397409569	-442.8571847510803	-560.1663638208014	3438.5546566590624	-411.98703164323297	-558.4487036005605	3416.988537577849	-384.7721717550202	-535.2754383874382	3399.7237812444373	-381.3017914695303	-632.3434728689391	3845.731561351029	-395.83806033949395	-405.992816512682	4002.9994428411123	-336.8579417573514	-141.1067428118361	3991.4464319225876	-245.25205977997342	4.121876945207386	4005.3303363770383	-241.48501174044685	19.46821276851528	3991.5041708840945	-222.90923525828367	6.167252296892679	4011.2446973343717	-218.1603679615896
